<svg xmlns="http://www.w3.org/2000/svg" xmlns:xlink="http://www.w3.org/1999/xlink" id="Calque_1" x="0px" y="0px" viewBox="0 0 966.55 274.47" style="enable-background:new 0 0 966.55 274.47;" xml:space="preserve"><style type="text/css">	.st0{fill:#6716DE;}</style><g>	<g>		<g>			<path class="st0" d="M893.31,67.08v8.45l-0.22-0.14c-0.46-0.29-2.1-1.23-4.03-1.23c-4.94,0-6.7,3.97-6.7,7.37v3.82     c0,3.53,2.17,7.33,6.94,7.33c3.42,0,6.88-2.27,6.88-7.33V67.08H893.31z M893.31,85.17c0,3.11-1.49,4.97-4,4.97     c-2.52,0-4.03-1.86-4.03-4.97V81.7c0-4.36,2.55-5.01,4.07-5.01c1.21,0,2.44,0.39,3.89,1.23l0.07,0.04V85.17z"></path>		</g>		<g>			<path class="st0" d="M916.2,74.16c-2.14,0-3.86,1.18-4.84,3.33l-0.13,0.28l-0.12-0.29c-0.95-2.14-2.67-3.32-4.84-3.32     c-2.96,0-6.42,1.82-6.42,6.95v11.12h2.91V81.46c0-3.03,1.28-4.76,3.51-4.76c2.23,0,3.51,1.95,3.51,5.35v10.18h2.91V82.05     c0-3.4,1.28-5.35,3.51-5.35c2.23,0,3.51,1.74,3.51,4.76v10.77h2.91V81.11C922.63,76.82,920.16,74.16,916.2,74.16z"></path>		</g>	</g>	<g>		<path class="st0" d="M468.1,156.46c-0.02,17.13-2.21,27.32-22.09,27.51c-18.4,0.18-22.09-14.22-22.09-27.81v-49.49    c0-12.86,3.69-26.77,22.09-27.25c21.29-0.55,22.12,13.76,22.14,27.51h15.84c-0.17-18.87-5.19-29.48-12.31-35.05    c-6.04-4.72-14.81-6.65-25.43-6.65c-10.92,0-20.18,2.36-26.09,6.64c-7.27,5.15-12.12,13.77-12.12,39.05v41.36    c0,25.45,4.85,34.09,12.11,39.23l0.02,0.02c5.9,4.27,15.16,6.63,26.08,6.63c10.69,0,19.33-2.24,25.65-6.65    c7.59-5.38,12.09-15.95,12.09-35.05L468.1,156.46z"></path>	</g>	<path class="st0" d="M517.38,71.9h-0.02c0.02,0.1,0.02,0.22,0.02,0.33v119.65c0,0.19-0.01,4.14-0.03,4.32h-15.82   c-0.02-0.18-0.03-4.13-0.03-4.32v-121l15.88-3.8V71.9z"></path>	<path class="st0" d="M535.62,107.28v84.6c0,0.19,0,4.12,0,4.32h15.88c0-0.19,0-4.13,0-4.32v-84.6H535.62z M543.56,72.57   c-5.53,0-10.01,4.32-10.01,9.67c0,5.53,4.49,9.84,10.01,9.84c5.36,0,10.01-4.49,10.01-9.84C553.58,76.89,548.92,72.57,543.56,72.57   z"></path>	<path class="st0" d="M623.38,112c-2.54-1.99-5.4-3.55-8.48-4.69c-4.03-1.49-8.45-2.24-13.1-2.24c-4.56,0-8.95,0.75-12.97,2.24   c-3.08,1.14-5.96,2.7-8.53,4.69c-7.79,6-12.86,15.83-12.86,29.16v50.76c0,0.19-0.02,4.14,0,4.32h15.89c0-0.18,0-4.13,0-4.32v-49.9   c0-15.37,7.6-22.96,18.47-22.96c10.71,0,18.3,7.6,18.3,22.96v49.9c0,0.19,0,3.96,0,4.28l15.88,0.04c0.02-0.18,0-4.13,0-4.32v-50.76   C635.98,127.83,631.08,118.01,623.38,112z"></path>	<path class="st0" d="M651.88,107.28l-0.01,88.38c0,0.19,0,0.36,0,0.54h15.86c0.02-0.18,0.03-0.35,0.03-0.54l0-88.38H651.88z    M659.83,72.57c-5.53,0-10.01,4.32-10.01,9.67c0,5.53,4.49,9.84,10.01,9.84c5.35,0,10.01-4.49,10.01-9.84   C669.84,76.89,665.18,72.57,659.83,72.57z"></path>	<path class="st0" d="M822.47,107.28l0,54.21c0,15.37-7.6,22.96-18.47,22.96c-10.71,0-18.31-7.6-18.31-22.96l0-54.21h-15.88l0,55.08   c0,14.03,5.42,24.17,13.84,30.07c3.01,2.11,6.4,3.67,10.05,4.68c3.25,0.89,6.7,1.34,10.3,1.34c3.56,0,7-0.46,10.25-1.34   c3.66-1,7.06-2.57,10.08-4.68c8.48-5.89,14.02-16.03,14.02-30.07l0-55.08H822.47z"></path>	<path class="st0" d="M910.05,112.3c-2.61-1.95-5.53-3.53-8.7-4.69c-3.99-1.46-8.35-2.24-12.93-2.24c-4.61,0-9,0.75-13.02,2.24   c-3.07,1.14-5.92,2.7-8.46,4.69c-7.74,6.01-12.71,15.89-12.71,29.33v20.2c0,14.53,5.49,24.93,14.51,30.93   c3.18,2.11,6.8,3.68,10.77,4.68c3.52,0.89,7.31,1.34,11.33,1.34c5.88,0,10.83-0.53,15.18-1.34c1.92-0.36,3.73-0.77,5.44-1.22   l0.04-0.01c0.67-0.18,1.32-0.36,1.96-0.54c0.13-0.04,0.26-0.09,0.38-0.14l0.1-0.03h0.01l4.5-1.29l-3.2-13.42l-4.42,1.11l-0.12,0.03   c-0.12,0.03-0.24,0.06-0.36,0.1c-0.6,0.15-1.24,0.31-1.9,0.46l-0.31,0.08c-4.59,1.08-10.5,2.22-17.3,2.22   c-12.95,0-20.72-7.08-20.72-22.96v-5.18h52.66v-18.3C922.79,127.26,917.82,118.13,910.05,112.3z M906.9,144.22h-36.78v-3.8   c0-13.81,7.6-21.06,18.3-21.06c11.05,0,18.47,7.77,18.47,18.99V144.22z"></path>	<g>		<path class="st0" d="M740.42,111.98c-2.61-1.98-5.51-3.55-8.61-4.69c-4.03-1.48-8.41-2.24-12.93-2.24c-4.52,0-8.9,0.76-12.95,2.24    c-3.12,1.14-6.03,2.71-8.66,4.69c-8.19,6.18-13.62,16.39-13.62,30.19v18.99c0,15.12,5.62,25.4,13.92,31.28    c3.01,2.13,6.38,3.69,9.97,4.68c3.23,0.9,6.65,1.34,10.12,1.34c3.24,0,6.41-0.53,9.35-1.34c4.24-1.18,8.01-2.97,10.87-4.68    c0.11-0.06,0.22-0.13,0.33-0.2v37.99c0,0.13,0.01,0.24,0.02,0.37h-0.01l-0.01,0.1v4.81l15.71-3.75v-89.59    C753.93,128.36,748.56,118.16,740.42,111.98z M738.22,178.43c-6.39,3.63-12.6,6.04-19.17,6.04c-10.53,0-19.51-6.22-19.51-24.17    v-17.27c0-16.4,8.63-24,19.34-24c10.88,0,19.34,7.6,19.34,24V178.43z"></path>	</g>	<g>		<path class="st0" d="M376.79,196.25h15.33v-52.75c0-13.47-5.24-23.43-13.19-29.47c-2.54-1.93-5.38-3.46-8.4-4.57    c-3.94-1.45-8.2-2.19-12.62-2.19c-4.41,0-8.69,0.74-12.64,2.19c-3.04,1.11-5.88,2.64-8.45,4.57c-8,6.04-13.29,15.99-13.29,29.47    v18.54c0,14.75,5.48,24.79,13.59,30.52c2.94,2.08,6.23,3.6,9.73,4.57c3.16,0.88,6.49,1.31,9.88,1.31c3.16,0,6.26-0.51,9.12-1.31    c4.14-1.15,7.81-2.9,10.61-4.57c0.11-0.06,0.21-0.13,0.32-0.19V196.25z M376.79,178.89c-6.23,3.54-12.3,5.9-18.7,5.9    c-10.28,0-19.04-6.07-19.04-23.59v-16.85c0-16.01,8.43-23.42,18.87-23.42c10.62,0,18.87,7.41,18.87,23.42V178.89z"></path>	</g>	<path class="st0" d="M314.8,183.13l-0.87,13.07h-40.04c-2.33,0-3.89-1.56-3.89-3.89v-97.4c0-0.05,0-0.09,0.01-0.14H270l0-29.53   h14.79l0,29.53h-0.01c0.01,0.05,0.01,0.09,0.01,0.14v88.22H314.8z"></path></g><g>	<g>		<g>			<g>				<g>					<path class="st0" d="M152.87,50.06c-0.33,6.22-2.73,11.49-7.47,16.52c-4.19,4.42-9.91,8.35-14.95,11.59l-1.94,1.26l-1.96-1.26       c-5.03-3.25-10.74-7.17-14.93-11.59c-4.74-5.03-7.13-10.31-7.47-16.52H47.41v162.19h56.74c0.33-6.22,2.73-11.48,7.47-16.5       c4.19-4.45,9.91-8.37,14.94-11.62l1.96-1.25l1.94,1.25c5.04,3.27,10.76,7.2,14.94,11.62c4.74,4.99,7.13,10.27,7.47,16.5h56.74       V50.06H152.87z M194.82,197.47H166.5l-0.98-2.01c-2.07-4.19-4.95-8.2-8.57-11.9c-2.5-2.58-5.41-5.09-8.91-7.69l-3.84-2.86       l-15.68-9.81l-1.94-1.26c-7.41-4.76-14.8-10.13-18.77-17.06c-2.3-4.01-3.58-8.72-3.7-13.63v-0.17c0.12-4.92,1.4-9.62,3.7-13.65       c2.91-5.08,7.65-9.31,12.91-13.09l-14.91-9.59c-5.54,4.62-9.56,9.24-12.5,14.36c-3.75,6.53-5.8,14.11-5.92,21.9v0.28       c0.12,7.83,2.17,15.4,5.92,21.92c3.48,6.06,8.46,11.43,15.71,16.92l3.83,2.89l-3.85,2.86c-3.47,2.58-6.39,5.08-8.92,7.68       c-3.6,3.7-6.49,7.7-8.56,11.9l-0.98,2.01H62.19V64.85h28.35l0.98,2.01c2.03,4.16,4.92,8.15,8.56,11.9       c2.51,2.59,5.41,5.1,8.91,7.68c2.55,1.94,5.19,3.78,7.92,5.47l11.56,7.25l0.06-0.04l1.94,1.25       c7.39,4.78,14.79,10.14,18.75,17.08c2.3,3.99,3.59,8.71,3.7,13.63v0.17c-0.11,4.89-1.4,9.61-3.7,13.64       c-2.91,5.08-7.68,9.31-12.92,13.09l14.91,9.59c5.54-4.61,9.57-9.24,12.51-14.36c3.74-6.54,5.8-14.11,5.92-21.9v-0.35       c-0.12-7.75-2.17-15.33-5.92-21.85c-3.47-6.06-8.46-11.43-15.71-16.92l-3.83-2.89l3.84-2.87c3.48-2.58,6.4-5.09,8.92-7.68       c3.62-3.72,6.5-7.73,8.56-11.9l0.98-2.01h28.34V197.47z"></path>				</g>			</g>		</g>	</g></g></svg>