<svg xmlns="http://www.w3.org/2000/svg" xmlns:xlink="http://www.w3.org/1999/xlink" id="Calque_1" x="0px" y="0px" viewBox="0 0 254.77 274.47" style="enable-background:new 0 0 254.77 274.47;" xml:space="preserve"><style type="text/css">	.st0{fill:#FFFFFF;}</style><g>	<g>		<g>			<g>				<g>					<path class="st0" d="M152.87,50.06c-0.33,6.22-2.73,11.49-7.47,16.52c-4.19,4.42-9.91,8.35-14.95,11.59l-1.94,1.26l-1.96-1.26       c-5.03-3.25-10.74-7.17-14.93-11.59c-4.74-5.03-7.13-10.31-7.47-16.52H47.41v162.19h56.74c0.33-6.22,2.73-11.48,7.47-16.5       c4.19-4.45,9.91-8.37,14.94-11.62l1.96-1.25l1.94,1.25c5.04,3.27,10.76,7.2,14.94,11.62c4.74,4.99,7.13,10.27,7.47,16.5h56.74       V50.06H152.87z M194.82,197.47H166.5l-0.98-2.01c-2.07-4.19-4.95-8.2-8.57-11.9c-2.5-2.58-5.41-5.09-8.91-7.69l-3.84-2.86       l-15.68-9.81l-1.94-1.26c-7.41-4.76-14.8-10.13-18.77-17.06c-2.3-4.01-3.58-8.72-3.7-13.63v-0.17c0.12-4.92,1.4-9.62,3.7-13.65       c2.91-5.08,7.65-9.31,12.91-13.09l-14.91-9.59c-5.54,4.62-9.56,9.24-12.5,14.36c-3.75,6.53-5.8,14.11-5.92,21.9v0.28       c0.12,7.83,2.17,15.4,5.92,21.92c3.48,6.06,8.46,11.43,15.71,16.92l3.83,2.89l-3.85,2.86c-3.47,2.58-6.39,5.08-8.92,7.68       c-3.6,3.7-6.49,7.7-8.56,11.9l-0.98,2.01H62.19V64.85h28.35l0.98,2.01c2.03,4.16,4.92,8.15,8.56,11.9       c2.51,2.59,5.41,5.1,8.91,7.68c2.55,1.94,5.19,3.78,7.92,5.47l11.56,7.25l0.06-0.04l1.94,1.25       c7.39,4.78,14.79,10.14,18.75,17.08c2.3,3.99,3.59,8.71,3.7,13.63v0.17c-0.11,4.89-1.4,9.61-3.7,13.64       c-2.91,5.08-7.68,9.31-12.92,13.09l14.91,9.59c5.54-4.61,9.57-9.24,12.51-14.36c3.74-6.54,5.8-14.11,5.92-21.9v-0.35       c-0.12-7.75-2.17-15.33-5.92-21.85c-3.47-6.06-8.46-11.43-15.71-16.92l-3.83-2.89l3.84-2.87c3.48-2.58,6.4-5.09,8.92-7.68       c3.62-3.72,6.5-7.73,8.56-11.9l0.98-2.01h28.34V197.47z"></path>				</g>			</g>		</g>	</g></g></svg>